<?xml version="1.0" encoding="utf-8"?>
<!-- Generator: Adobe Illustrator 19.1.0, SVG Export Plug-In . SVG Version: 6.00 Build 0)  -->
<svg version="1.1" xmlns="http://www.w3.org/2000/svg" xmlns:xlink="http://www.w3.org/1999/xlink" x="0px" y="0px"
	 viewBox="0 0 20.6 21.1" style="fill:white;" enable-background="new 0 0 20.6 21.1" xml:space="preserve">
<g id="Layer_2">
</g>
<g id="Layer_1">
	<path d="M20.4,19.7l-6.6-6.6c1.2-1.4,1.9-3.1,1.9-5.1c0-4.3-3.5-7.8-7.8-7.8C3.6,0.2,0.1,3.7,0.1,8c0,4.3,3.5,7.8,7.8,7.8
		c1.6,0,3.2-0.5,4.4-1.4l6.7,6.7L20.4,19.7z M7.9,13.8c-3.2,0-5.8-2.6-5.8-5.8s2.6-5.8,5.8-5.8c3.2,0,5.8,2.6,5.8,5.8
		S11.1,13.8,7.9,13.8z"/>
</g>
</svg>
